%TF.GenerationSoftware,KiCad,Pcbnew,10.0.3*%
%TF.CreationDate,2026-06-12T10:57:19+05:30*%
%TF.ProjectId,555,3535352e-6b69-4636-9164-5f7063625858,rev?*%
%TF.SameCoordinates,Original*%
%TF.FileFunction,Copper,L1,Top*%
%TF.FilePolarity,Positive*%
%FSLAX46Y46*%
G04 Gerber Fmt 4.6, Leading zero omitted, Abs format (unit mm)*
G04 Created by KiCad (PCBNEW 10.0.3) date 2026-06-12 10:57:19*
%MOMM*%
%LPD*%
G01*
G04 APERTURE LIST*
G04 Aperture macros list*
%AMRoundRect*
0 Rectangle with rounded corners*
0 $1 Rounding radius*
0 $2 $3 $4 $5 $6 $7 $8 $9 X,Y pos of 4 corners*
0 Add a 4 corners polygon primitive as box body*
4,1,4,$2,$3,$4,$5,$6,$7,$8,$9,$2,$3,0*
0 Add four circle primitives for the rounded corners*
1,1,$1+$1,$2,$3*
1,1,$1+$1,$4,$5*
1,1,$1+$1,$6,$7*
1,1,$1+$1,$8,$9*
0 Add four rect primitives between the rounded corners*
20,1,$1+$1,$2,$3,$4,$5,0*
20,1,$1+$1,$4,$5,$6,$7,0*
20,1,$1+$1,$6,$7,$8,$9,0*
20,1,$1+$1,$8,$9,$2,$3,0*%
G04 Aperture macros list end*
%TA.AperFunction,ComponentPad*%
%ADD10C,1.600000*%
%TD*%
%TA.AperFunction,ComponentPad*%
%ADD11RoundRect,0.250000X0.550000X0.550000X-0.550000X0.550000X-0.550000X-0.550000X0.550000X-0.550000X0*%
%TD*%
%TA.AperFunction,ComponentPad*%
%ADD12R,1.800000X1.800000*%
%TD*%
%TA.AperFunction,ComponentPad*%
%ADD13C,1.800000*%
%TD*%
%TA.AperFunction,ComponentPad*%
%ADD14RoundRect,0.250000X1.050000X-1.050000X1.050000X1.050000X-1.050000X1.050000X-1.050000X-1.050000X0*%
%TD*%
%TA.AperFunction,ComponentPad*%
%ADD15C,2.600000*%
%TD*%
%TA.AperFunction,ComponentPad*%
%ADD16RoundRect,0.250000X-0.950000X-0.550000X0.950000X-0.550000X0.950000X0.550000X-0.950000X0.550000X0*%
%TD*%
%TA.AperFunction,ComponentPad*%
%ADD17O,2.400000X1.600000*%
%TD*%
%TA.AperFunction,Conductor*%
%ADD18C,0.200000*%
%TD*%
%ADD19C,1.600000*%
%ADD20RoundRect,0.250000X0.550000X0.550000X-0.550000X0.550000X-0.550000X-0.550000X0.550000X-0.550000X0*%
%ADD21R,1.800000X1.800000*%
%ADD22C,1.800000*%
%ADD23RoundRect,0.250000X1.050000X-1.050000X1.050000X1.050000X-1.050000X1.050000X-1.050000X-1.050000X0*%
%ADD24C,2.600000*%
%ADD25RoundRect,0.250000X-0.950000X-0.550000X0.950000X-0.550000X0.950000X0.550000X-0.950000X0.550000X0*%
%ADD26O,2.400000X1.600000*%
%ADD27C,0.120000*%
%ADD28C,0.050000*%
%ADD29C,0.150000*%
%ADD30C,0.100000*%
%TA.AperFunction,Profile*%
%ADD31C,0.050000*%
%TD*%
G04 APERTURE END LIST*
D10*
%TO.P,R2,1*%
%TO.N,Net-(U1-DIS)*%
X207000000Y-103610000D03*
%TO.P,R2,2*%
%TO.N,Net-(U1-THR)*%
X207000000Y-95990000D03*
%TD*%
D11*
%TO.P,C1,1*%
%TO.N,Net-(U1-THR)*%
X188555113Y-97400000D03*
D10*
%TO.P,C1,2*%
%TO.N,GND*%
X186555113Y-97400000D03*
%TD*%
%TO.P,R1,1*%
%TO.N,+12V*%
X203800000Y-96000000D03*
%TO.P,R1,2*%
%TO.N,Net-(U1-DIS)*%
X203800000Y-103620000D03*
%TD*%
D12*
%TO.P,D1,1,K*%
%TO.N,GND*%
X186285113Y-102600000D03*
D13*
%TO.P,D1,2,A*%
%TO.N,Net-(D1-A)*%
X188825113Y-102600000D03*
%TD*%
D14*
%TO.P,J1,1,Pin_1*%
%TO.N,+12V*%
X214600000Y-102080000D03*
D15*
%TO.P,J1,2,Pin_2*%
%TO.N,GND*%
X214600000Y-97000000D03*
%TD*%
D16*
%TO.P,U1,1,GND*%
%TO.N,GND*%
X192790000Y-96190000D03*
D17*
%TO.P,U1,2,TR*%
%TO.N,Net-(U1-THR)*%
X192790000Y-98730000D03*
%TO.P,U1,3,Q*%
%TO.N,Net-(D1-A)*%
X192790000Y-101270000D03*
%TO.P,U1,4,R*%
%TO.N,unconnected-(U1-R-Pad4)*%
X192790000Y-103810000D03*
%TO.P,U1,5,CV*%
%TO.N,unconnected-(U1-CV-Pad5)*%
X200410000Y-103810000D03*
%TO.P,U1,6,THR*%
%TO.N,Net-(U1-THR)*%
X200410000Y-101270000D03*
%TO.P,U1,7,DIS*%
%TO.N,Net-(U1-DIS)*%
X200410000Y-98730000D03*
%TO.P,U1,8,VCC*%
%TO.N,+12V*%
X200410000Y-96190000D03*
%TD*%
%TO.N,Net-(D1-A)*%
D18*
X189355113Y-102400000D02*
X192355113Y-101200000D01*
%TO.N,Net-(U1-DIS)*%
X201000000Y-98800000D02*
X203800000Y-103600000D01*
%TO.N,Net-(U1-THR)*%
X206000000Y-97400000D02*
X207200000Y-96000000D01*
%TO.N,+12V*%
X201000000Y-96200000D02*
X203400000Y-96000000D01*
%TO.N,Net-(U1-THR)*%
X199295000Y-97800000D02*
X200295000Y-97400000D01*
X200295000Y-97400000D02*
X206000000Y-97400000D01*
%TO.N,Net-(U1-DIS)*%
X203800000Y-103600000D02*
X206800000Y-103600000D01*
%TD*%
D10*
%TO.P,R2,1*%
%TO.N,Net-(U1-DIS)*%
X207000000Y-103610000D03*
%TO.P,R2,2*%
%TO.N,Net-(U1-THR)*%
X207000000Y-95990000D03*
%TD*%
D11*
%TO.P,C1,1*%
%TO.N,Net-(U1-THR)*%
X188555113Y-97400000D03*
D10*
%TO.P,C1,2*%
%TO.N,GND*%
X186555113Y-97400000D03*
%TD*%
%TO.P,R1,1*%
%TO.N,+12V*%
X203800000Y-96000000D03*
%TO.P,R1,2*%
%TO.N,Net-(U1-DIS)*%
X203800000Y-103620000D03*
%TD*%
D12*
%TO.P,D1,1,K*%
%TO.N,GND*%
X186285113Y-102600000D03*
D13*
%TO.P,D1,2,A*%
%TO.N,Net-(D1-A)*%
X188825113Y-102600000D03*
%TD*%
D14*
%TO.P,J1,1,Pin_1*%
%TO.N,+12V*%
X214600000Y-102080000D03*
D15*
%TO.P,J1,2,Pin_2*%
%TO.N,GND*%
X214600000Y-97000000D03*
%TD*%
D16*
%TO.P,U1,1,GND*%
%TO.N,GND*%
X192790000Y-96190000D03*
D17*
%TO.P,U1,2,TR*%
%TO.N,Net-(U1-THR)*%
X192790000Y-98730000D03*
%TO.P,U1,3,Q*%
%TO.N,Net-(D1-A)*%
X192790000Y-101270000D03*
%TO.P,U1,4,R*%
%TO.N,unconnected-(U1-R-Pad4)*%
X192790000Y-103810000D03*
%TO.P,U1,5,CV*%
%TO.N,unconnected-(U1-CV-Pad5)*%
X200410000Y-103810000D03*
%TO.P,U1,6,THR*%
%TO.N,Net-(U1-THR)*%
X200410000Y-101270000D03*
%TO.P,U1,7,DIS*%
%TO.N,Net-(U1-DIS)*%
X200410000Y-98730000D03*
%TO.P,U1,8,VCC*%
%TO.N,+12V*%
X200410000Y-96190000D03*
%TD*%
%TO.N,Net-(U1-THR)*%
D18*
X190500000Y-97400000D02*
X191830000Y-98730000D01*
X198365000Y-99225000D02*
X200410000Y-101270000D01*
X198365000Y-98730000D02*
X192790000Y-98730000D01*
X191830000Y-98730000D02*
X192790000Y-98730000D01*
X199295000Y-97800000D02*
X198365000Y-98730000D01*
X188555113Y-97400000D02*
X190500000Y-97400000D01*
X198365000Y-98730000D02*
X198365000Y-99225000D01*
%TO.N,GND*%
X187100000Y-96000000D02*
X192600000Y-96000000D01*
X210100000Y-95500000D02*
X210100000Y-96500000D01*
X186555113Y-96544887D02*
X187100000Y-96000000D01*
X200095000Y-94000000D02*
X208600000Y-94000000D01*
X186555113Y-97400000D02*
X186555113Y-96544887D01*
X210100000Y-96500000D02*
X210600000Y-97000000D01*
X186555113Y-102330000D02*
X186285113Y-102600000D01*
X186555113Y-97400000D02*
X186555113Y-102330000D01*
X192790000Y-96190000D02*
X197905000Y-96190000D01*
X192600000Y-96000000D02*
X192790000Y-96190000D01*
X197905000Y-96190000D02*
X200095000Y-94000000D01*
X210600000Y-97000000D02*
X214600000Y-97000000D01*
X208600000Y-94000000D02*
X210100000Y-95500000D01*
%TO.N,+12V*%
X209600000Y-100000000D02*
X212100000Y-100000000D01*
X214180000Y-102080000D02*
X214600000Y-102080000D01*
X204100000Y-94500000D02*
X208100000Y-94500000D01*
X212100000Y-100000000D02*
X214180000Y-102080000D01*
X209100000Y-99500000D02*
X209600000Y-100000000D01*
X208100000Y-94500000D02*
X209100000Y-95500000D01*
X203800000Y-96000000D02*
X203800000Y-94800000D01*
X209100000Y-95500000D02*
X209100000Y-99500000D01*
X203800000Y-94800000D02*
X204100000Y-94500000D01*
%TD*%
%TA.AperFunction,Conductor*%
%TO.N,GND*%
G36*
X222003736Y-90500726D02*
G01*
X222293796Y-90518271D01*
X222308657Y-90520075D01*
X222529507Y-90560548D01*
X222591900Y-90591994D01*
X222594836Y-90594836D01*
X224405162Y-92405162D01*
X224438647Y-92466485D01*
X224439450Y-92470491D01*
X224479923Y-92691340D01*
X224481728Y-92706205D01*
X224499274Y-92996263D01*
X224499500Y-93003750D01*
X224499500Y-106996249D01*
X224499274Y-107003736D01*
X224481728Y-107293794D01*
X224479923Y-107308659D01*
X224439451Y-107529506D01*
X224408004Y-107591899D01*
X224405163Y-107594835D01*
X222594835Y-109405163D01*
X222533512Y-109438648D01*
X222529506Y-109439451D01*
X222308659Y-109479923D01*
X222293794Y-109481728D01*
X222003736Y-109499274D01*
X221996249Y-109499500D01*
X183003751Y-109499500D01*
X182996264Y-109499274D01*
X182706205Y-109481728D01*
X182691340Y-109479923D01*
X182470491Y-109439450D01*
X182408098Y-109408003D01*
X182405162Y-109405162D01*
X180594836Y-107594836D01*
X180561351Y-107533513D01*
X180560548Y-107529507D01*
X180520076Y-107308659D01*
X180518271Y-107293794D01*
X180500726Y-107003736D01*
X180500500Y-106996249D01*
X180500500Y-101652155D01*
X184885113Y-101652155D01*
X184885113Y-102350000D01*
X185909835Y-102350000D01*
X185865780Y-102426306D01*
X185835113Y-102540756D01*
X185835113Y-102659244D01*
X185865780Y-102773694D01*
X185909835Y-102850000D01*
X184885113Y-102850000D01*
X184885113Y-103547844D01*
X184891514Y-103607372D01*
X184891516Y-103607379D01*
X184941758Y-103742086D01*
X184941762Y-103742093D01*
X185027922Y-103857187D01*
X185027925Y-103857190D01*
X185143019Y-103943350D01*
X185143026Y-103943354D01*
X185277733Y-103993596D01*
X185277740Y-103993598D01*
X185337268Y-103999999D01*
X185337285Y-104000000D01*
X186035113Y-104000000D01*
X186035113Y-102975277D01*
X186111419Y-103019333D01*
X186225869Y-103050000D01*
X186344357Y-103050000D01*
X186458807Y-103019333D01*
X186535113Y-102975277D01*
X186535113Y-104000000D01*
X187232941Y-104000000D01*
X187232957Y-103999999D01*
X187292485Y-103993598D01*
X187292492Y-103993596D01*
X187427199Y-103943354D01*
X187427206Y-103943350D01*
X187542300Y-103857190D01*
X187542303Y-103857187D01*
X187628463Y-103742093D01*
X187628467Y-103742086D01*
X187658326Y-103662031D01*
X187700197Y-103606097D01*
X187765661Y-103581680D01*
X187833934Y-103596531D01*
X187862189Y-103617683D01*
X187912749Y-103668243D01*
X187912754Y-103668247D01*
X188068305Y-103781260D01*
X188091091Y-103797815D01*
X188207614Y-103857187D01*
X188287506Y-103897895D01*
X188287509Y-103897896D01*
X188392334Y-103931955D01*
X188497162Y-103966015D01*
X188714891Y-104000500D01*
X188714892Y-104000500D01*
X188935334Y-104000500D01*
X188935335Y-104000500D01*
X189153064Y-103966015D01*
X189362719Y-103897895D01*
X189559135Y-103797815D01*
X189737478Y-103668242D01*
X189893355Y-103512365D01*
X190022928Y-103334022D01*
X190123008Y-103137606D01*
X190191128Y-102927951D01*
X190216566Y-102767340D01*
X190246495Y-102704207D01*
X190292983Y-102671609D01*
X191402384Y-102227848D01*
X191471936Y-102221228D01*
X191534029Y-102253262D01*
X191536114Y-102255299D01*
X191542786Y-102261971D01*
X191697749Y-102374556D01*
X191708390Y-102382287D01*
X191794782Y-102426306D01*
X191801080Y-102429515D01*
X191851876Y-102477490D01*
X191868671Y-102545311D01*
X191846134Y-102611446D01*
X191801080Y-102650485D01*
X191708386Y-102697715D01*
X191542786Y-102818028D01*
X191398028Y-102962786D01*
X191277715Y-103128386D01*
X191184781Y-103310776D01*
X191121522Y-103505465D01*
X191089500Y-103707648D01*
X191089500Y-103912352D01*
X191093878Y-103939995D01*
X191121522Y-104114534D01*
X191184781Y-104309223D01*
X191277715Y-104491613D01*
X191398028Y-104657213D01*
X191542786Y-104801971D01*
X191648090Y-104878477D01*
X191708390Y-104922287D01*
X191824607Y-104981503D01*
X191890776Y-105015218D01*
X191890778Y-105015218D01*
X191890781Y-105015220D01*
X191995137Y-105049127D01*
X192085465Y-105078477D01*
X192186557Y-105094488D01*
X192287648Y-105110500D01*
X192287649Y-105110500D01*
X193292351Y-105110500D01*
X193292352Y-105110500D01*
X193494534Y-105078477D01*
X193689219Y-105015220D01*
X193871610Y-104922287D01*
X193964590Y-104854732D01*
X194037213Y-104801971D01*
X194037215Y-104801968D01*
X194037219Y-104801966D01*
X194181966Y-104657219D01*
X194181968Y-104657215D01*
X194181971Y-104657213D01*
X194234732Y-104584590D01*
X194302287Y-104491610D01*
X194395220Y-104309219D01*
X194458477Y-104114534D01*
X194490500Y-103912352D01*
X194490500Y-103707648D01*
X194465189Y-103547844D01*
X194458477Y-103505465D01*
X194395218Y-103310776D01*
X194361503Y-103244607D01*
X194302287Y-103128390D01*
X194245334Y-103050000D01*
X194181971Y-102962786D01*
X194037213Y-102818028D01*
X193871614Y-102697715D01*
X193796110Y-102659244D01*
X193778917Y-102650483D01*
X193728123Y-102602511D01*
X193711328Y-102534690D01*
X193733865Y-102468555D01*
X193778917Y-102429516D01*
X193871610Y-102382287D01*
X193916050Y-102350000D01*
X194037213Y-102261971D01*
X194037215Y-102261968D01*
X194037219Y-102261966D01*
X194181966Y-102117219D01*
X194181968Y-102117215D01*
X194181971Y-102117213D01*
X194234732Y-102044590D01*
X194302287Y-101951610D01*
X194395220Y-101769219D01*
X194458477Y-101574534D01*
X194490500Y-101372352D01*
X194490500Y-101167648D01*
X194472210Y-101052171D01*
X194458477Y-100965465D01*
X194429127Y-100875137D01*
X194395220Y-100770781D01*
X194395218Y-100770778D01*
X194395218Y-100770776D01*
X194342847Y-100667994D01*
X194302287Y-100588390D01*
X194281353Y-100559576D01*
X194181971Y-100422786D01*
X194037213Y-100278028D01*
X193871614Y-100157715D01*
X193865006Y-100154348D01*
X193778917Y-100110483D01*
X193728123Y-100062511D01*
X193711328Y-99994690D01*
X193733865Y-99928555D01*
X193778917Y-99889516D01*
X193871610Y-99842287D01*
X193973561Y-99768216D01*
X194037213Y-99721971D01*
X194037215Y-99721968D01*
X194037219Y-99721966D01*
X194181966Y-99577219D01*
X194181968Y-99577215D01*
X194181971Y-99577213D01*
X194302284Y-99411614D01*
X194302285Y-99411613D01*
X194302287Y-99411610D01*
X194309117Y-99398204D01*
X194357091Y-99347409D01*
X194419602Y-99330500D01*
X197676436Y-99330500D01*
X197743475Y-99350185D01*
X197789230Y-99402989D01*
X197789862Y-99404395D01*
X197793732Y-99413157D01*
X197805423Y-99456785D01*
X197834360Y-99506904D01*
X197837697Y-99512685D01*
X197837699Y-99512688D01*
X197884479Y-99593714D01*
X197884481Y-99593717D01*
X198003349Y-99712585D01*
X198003355Y-99712590D01*
X198827743Y-100536979D01*
X198861228Y-100598302D01*
X198856244Y-100667994D01*
X198850548Y-100680953D01*
X198804778Y-100770783D01*
X198741523Y-100965461D01*
X198741523Y-100965464D01*
X198709500Y-101167648D01*
X198709500Y-101372351D01*
X198741522Y-101574534D01*
X198804781Y-101769223D01*
X198854081Y-101865978D01*
X198895890Y-101948033D01*
X198897715Y-101951613D01*
X199018028Y-102117213D01*
X199162786Y-102261971D01*
X199317749Y-102374556D01*
X199328390Y-102382287D01*
X199414782Y-102426306D01*
X199421080Y-102429515D01*
X199471876Y-102477490D01*
X199488671Y-102545311D01*
X199466134Y-102611446D01*
X199421080Y-102650485D01*
X199328386Y-102697715D01*
X199162786Y-102818028D01*
X199018028Y-102962786D01*
X198897715Y-103128386D01*
X198804781Y-103310776D01*
X198741522Y-103505465D01*
X198709500Y-103707648D01*
X198709500Y-103912352D01*
X198713878Y-103939995D01*
X198741522Y-104114534D01*
X198804781Y-104309223D01*
X198897715Y-104491613D01*
X199018028Y-104657213D01*
X199162786Y-104801971D01*
X199268090Y-104878477D01*
X199328390Y-104922287D01*
X199444607Y-104981503D01*
X199510776Y-105015218D01*
X199510778Y-105015218D01*
X199510781Y-105015220D01*
X199615137Y-105049127D01*
X199705465Y-105078477D01*
X199806557Y-105094488D01*
X199907648Y-105110500D01*
X199907649Y-105110500D01*
X200912351Y-105110500D01*
X200912352Y-105110500D01*
X201114534Y-105078477D01*
X201309219Y-105015220D01*
X201491610Y-104922287D01*
X201584590Y-104854732D01*
X201657213Y-104801971D01*
X201657215Y-104801968D01*
X201657219Y-104801966D01*
X201801966Y-104657219D01*
X201801968Y-104657215D01*
X201801971Y-104657213D01*
X201854732Y-104584590D01*
X201922287Y-104491610D01*
X202015220Y-104309219D01*
X202078477Y-104114534D01*
X202110500Y-103912352D01*
X202110500Y-103707648D01*
X202085189Y-103547844D01*
X202078477Y-103505465D01*
X202015218Y-103310776D01*
X201981503Y-103244607D01*
X201922287Y-103128390D01*
X201865334Y-103050000D01*
X201801971Y-102962786D01*
X201657213Y-102818028D01*
X201491614Y-102697715D01*
X201416110Y-102659244D01*
X201398917Y-102650483D01*
X201348123Y-102602511D01*
X201331328Y-102534690D01*
X201353865Y-102468555D01*
X201398917Y-102429516D01*
X201491610Y-102382287D01*
X201536050Y-102350000D01*
X201657213Y-102261971D01*
X201657215Y-102261968D01*
X201657219Y-102261966D01*
X201801966Y-102117219D01*
X201801968Y-102117215D01*
X201801971Y-102117213D01*
X201922287Y-101951610D01*
X201924832Y-101947458D01*
X201925771Y-101948033D01*
X201970119Y-101901057D01*
X202037937Y-101884247D01*
X202104077Y-101906769D01*
X202139763Y-101945654D01*
X202668129Y-102851424D01*
X202684905Y-102919250D01*
X202671505Y-102970199D01*
X202594781Y-103120776D01*
X202531522Y-103315465D01*
X202499500Y-103517648D01*
X202499500Y-103722351D01*
X202531522Y-103924534D01*
X202594781Y-104119223D01*
X202644810Y-104217409D01*
X202682619Y-104291613D01*
X202687715Y-104301613D01*
X202808028Y-104467213D01*
X202952786Y-104611971D01*
X203104622Y-104722284D01*
X203118390Y-104732287D01*
X203234607Y-104791503D01*
X203300776Y-104825218D01*
X203300778Y-104825218D01*
X203300781Y-104825220D01*
X203405137Y-104859127D01*
X203495465Y-104888477D01*
X203596557Y-104904488D01*
X203697648Y-104920500D01*
X203697649Y-104920500D01*
X203902351Y-104920500D01*
X203902352Y-104920500D01*
X204104534Y-104888477D01*
X204299219Y-104825220D01*
X204481610Y-104732287D01*
X204584941Y-104657213D01*
X204647213Y-104611971D01*
X204647215Y-104611968D01*
X204647219Y-104611966D01*
X204791966Y-104467219D01*
X204791968Y-104467215D01*
X204791971Y-104467213D01*
X204912286Y-104301611D01*
X204929309Y-104268204D01*
X204977284Y-104217409D01*
X205039793Y-104200500D01*
X205765303Y-104200500D01*
X205832342Y-104220185D01*
X205875788Y-104268206D01*
X205887713Y-104291611D01*
X206008028Y-104457213D01*
X206152786Y-104601971D01*
X206307749Y-104714556D01*
X206318390Y-104722287D01*
X206434607Y-104781503D01*
X206500776Y-104815218D01*
X206500778Y-104815218D01*
X206500781Y-104815220D01*
X206605137Y-104849127D01*
X206695465Y-104878477D01*
X206758602Y-104888477D01*
X206897648Y-104910500D01*
X206897649Y-104910500D01*
X207102351Y-104910500D01*
X207102352Y-104910500D01*
X207304534Y-104878477D01*
X207499219Y-104815220D01*
X207681610Y-104722287D01*
X207774590Y-104654732D01*
X207847213Y-104601971D01*
X207847215Y-104601968D01*
X207847219Y-104601966D01*
X207991966Y-104457219D01*
X207991968Y-104457215D01*
X207991971Y-104457213D01*
X208044732Y-104384590D01*
X208112287Y-104291610D01*
X208205220Y-104109219D01*
X208268477Y-103914534D01*
X208300500Y-103712352D01*
X208300500Y-103507648D01*
X208291263Y-103449331D01*
X208268477Y-103305465D01*
X208227716Y-103180016D01*
X208205220Y-103110781D01*
X208205218Y-103110778D01*
X208205218Y-103110776D01*
X208148519Y-102999500D01*
X208112287Y-102928390D01*
X208074446Y-102876306D01*
X207991971Y-102762786D01*
X207847213Y-102618028D01*
X207681613Y-102497715D01*
X207681612Y-102497714D01*
X207681610Y-102497713D01*
X207624384Y-102468555D01*
X207499223Y-102404781D01*
X207304534Y-102341522D01*
X207129995Y-102313878D01*
X207102352Y-102309500D01*
X206897648Y-102309500D01*
X206873329Y-102313351D01*
X206695465Y-102341522D01*
X206500776Y-102404781D01*
X206318386Y-102497715D01*
X206152786Y-102618028D01*
X206008034Y-102762780D01*
X205887711Y-102928393D01*
X205885980Y-102931792D01*
X205838007Y-102982589D01*
X205775494Y-102999500D01*
X205019179Y-102999500D01*
X204952140Y-102979815D01*
X204915325Y-102942204D01*
X204915151Y-102942331D01*
X204914293Y-102941150D01*
X204913452Y-102940291D01*
X204912283Y-102938383D01*
X204791971Y-102772786D01*
X204647213Y-102628028D01*
X204481613Y-102507715D01*
X204481612Y-102507714D01*
X204481610Y-102507713D01*
X204417839Y-102475220D01*
X204299223Y-102414781D01*
X204104534Y-102351522D01*
X203928831Y-102323694D01*
X203902352Y-102319500D01*
X203902351Y-102319500D01*
X203819465Y-102319500D01*
X203752426Y-102299815D01*
X203712356Y-102257980D01*
X203709604Y-102253262D01*
X202016854Y-99351405D01*
X202000079Y-99283581D01*
X202013484Y-99232625D01*
X202015220Y-99229219D01*
X202078477Y-99034534D01*
X202110500Y-98832352D01*
X202110500Y-98627648D01*
X202090259Y-98499854D01*
X202078477Y-98425465D01*
X202027747Y-98269336D01*
X202015220Y-98230781D01*
X202015218Y-98230778D01*
X202015218Y-98230776D01*
X201989751Y-98180795D01*
X201976855Y-98112126D01*
X202003131Y-98047385D01*
X202060238Y-98007128D01*
X202100236Y-98000500D01*
X205944285Y-98000500D01*
X205967232Y-98004795D01*
X206023066Y-98000500D01*
X206079057Y-98000500D01*
X206090493Y-97997435D01*
X206113080Y-97993575D01*
X206124881Y-97992668D01*
X206173229Y-97975642D01*
X206182281Y-97972840D01*
X206231784Y-97959577D01*
X206242041Y-97953655D01*
X206252003Y-97947903D01*
X206274020Y-97940151D01*
X206320219Y-97908519D01*
X206368716Y-97880520D01*
X206385224Y-97864011D01*
X206404484Y-97850825D01*
X206440921Y-97808314D01*
X206480520Y-97768716D01*
X206486441Y-97758459D01*
X206499675Y-97739766D01*
X206790905Y-97400000D01*
X206847646Y-97333802D01*
X206906221Y-97295712D01*
X206941794Y-97290500D01*
X207102351Y-97290500D01*
X207102352Y-97290500D01*
X207304534Y-97258477D01*
X207499219Y-97195220D01*
X207681610Y-97102287D01*
X207822396Y-97000001D01*
X207847213Y-96981971D01*
X207847215Y-96981968D01*
X207847219Y-96981966D01*
X207991966Y-96837219D01*
X207991968Y-96837215D01*
X207991971Y-96837213D01*
X208072036Y-96727011D01*
X208112287Y-96671610D01*
X208205220Y-96489219D01*
X208257569Y-96328106D01*
X208297007Y-96270430D01*
X208361365Y-96243232D01*
X208430212Y-96255147D01*
X208481687Y-96302391D01*
X208499500Y-96366424D01*
X208499500Y-99413330D01*
X208499499Y-99413348D01*
X208499499Y-99579054D01*
X208499498Y-99579054D01*
X208540424Y-99731789D01*
X208540425Y-99731790D01*
X208561455Y-99768214D01*
X208561456Y-99768216D01*
X208619475Y-99868709D01*
X208619479Y-99868714D01*
X208619480Y-99868716D01*
X208731284Y-99980520D01*
X208731285Y-99980521D01*
X209231284Y-100480520D01*
X209231286Y-100480521D01*
X209231290Y-100480524D01*
X209368209Y-100559573D01*
X209368216Y-100559577D01*
X209520943Y-100600501D01*
X209520945Y-100600501D01*
X209686654Y-100600501D01*
X209686670Y-100600500D01*
X211799903Y-100600500D01*
X211866942Y-100620185D01*
X211887584Y-100636819D01*
X212763181Y-101512416D01*
X212796666Y-101573739D01*
X212799500Y-101600097D01*
X212799500Y-103180001D01*
X212799501Y-103180018D01*
X212810000Y-103282796D01*
X212810001Y-103282799D01*
X212820826Y-103315465D01*
X212865186Y-103449334D01*
X212957288Y-103598656D01*
X213081344Y-103722712D01*
X213230666Y-103814814D01*
X213397203Y-103869999D01*
X213499991Y-103880500D01*
X215700008Y-103880499D01*
X215802797Y-103869999D01*
X215969334Y-103814814D01*
X216118656Y-103722712D01*
X216242712Y-103598656D01*
X216334814Y-103449334D01*
X216389999Y-103282797D01*
X216400500Y-103180009D01*
X216400499Y-100979992D01*
X216389999Y-100877203D01*
X216334814Y-100710666D01*
X216242712Y-100561344D01*
X216118656Y-100437288D01*
X215969334Y-100345186D01*
X215802797Y-100290001D01*
X215802795Y-100290000D01*
X215700010Y-100279500D01*
X213499998Y-100279500D01*
X213499981Y-100279501D01*
X213397203Y-100290000D01*
X213351152Y-100305260D01*
X213281323Y-100307660D01*
X213224469Y-100275234D01*
X212587590Y-99638355D01*
X212587588Y-99638352D01*
X212468717Y-99519481D01*
X212468716Y-99519480D01*
X212381904Y-99469360D01*
X212381904Y-99469359D01*
X212381900Y-99469358D01*
X212331785Y-99440423D01*
X212179057Y-99399499D01*
X212020943Y-99399499D01*
X212013347Y-99399499D01*
X212013331Y-99399500D01*
X209900098Y-99399500D01*
X209870657Y-99390855D01*
X209840671Y-99384332D01*
X209835655Y-99380577D01*
X209833059Y-99379815D01*
X209812417Y-99363181D01*
X209736819Y-99287583D01*
X209703334Y-99226260D01*
X209700500Y-99199902D01*
X209700500Y-96882014D01*
X212800000Y-96882014D01*
X212800000Y-97117985D01*
X212830799Y-97351914D01*
X212891870Y-97579837D01*
X212982160Y-97797819D01*
X212982165Y-97797828D01*
X213100144Y-98002171D01*
X213100145Y-98002172D01*
X213162721Y-98083723D01*
X213998958Y-97247487D01*
X214023978Y-97307890D01*
X214095112Y-97414351D01*
X214185649Y-97504888D01*
X214292110Y-97576022D01*
X214352511Y-97601041D01*
X213516275Y-98437277D01*
X213597827Y-98499854D01*
X213597828Y-98499855D01*
X213802171Y-98617834D01*
X213802180Y-98617839D01*
X214020163Y-98708129D01*
X214020161Y-98708129D01*
X214248085Y-98769200D01*
X214482014Y-98799999D01*
X214482029Y-98800000D01*
X214717971Y-98800000D01*
X214717985Y-98799999D01*
X214951914Y-98769200D01*
X215179837Y-98708129D01*
X215397819Y-98617839D01*
X215397828Y-98617834D01*
X215602181Y-98499850D01*
X215683723Y-98437279D01*
X215683723Y-98437276D01*
X214847487Y-97601041D01*
X214907890Y-97576022D01*
X215014351Y-97504888D01*
X215104888Y-97414351D01*
X215176022Y-97307890D01*
X215201041Y-97247488D01*
X216037276Y-98083723D01*
X216037279Y-98083723D01*
X216099850Y-98002181D01*
X216217834Y-97797828D01*
X216217839Y-97797819D01*
X216308129Y-97579837D01*
X216369200Y-97351914D01*
X216399999Y-97117985D01*
X216400000Y-97117971D01*
X216400000Y-96882028D01*
X216399999Y-96882014D01*
X216369200Y-96648085D01*
X216308129Y-96420162D01*
X216217839Y-96202180D01*
X216217834Y-96202171D01*
X216099855Y-95997828D01*
X216099854Y-95997827D01*
X216037277Y-95916275D01*
X215201041Y-96752511D01*
X215176022Y-96692110D01*
X215104888Y-96585649D01*
X215014351Y-96495112D01*
X214907890Y-96423978D01*
X214847488Y-96398958D01*
X215683723Y-95562721D01*
X215602172Y-95500145D01*
X215602171Y-95500144D01*
X215397828Y-95382165D01*
X215397819Y-95382160D01*
X215179836Y-95291870D01*
X215179838Y-95291870D01*
X214951914Y-95230799D01*
X214717985Y-95200000D01*
X214482014Y-95200000D01*
X214248085Y-95230799D01*
X214020162Y-95291870D01*
X213802180Y-95382160D01*
X213802171Y-95382165D01*
X213597828Y-95500144D01*
X213597818Y-95500150D01*
X213516275Y-95562720D01*
X213516275Y-95562721D01*
X214352512Y-96398958D01*
X214292110Y-96423978D01*
X214185649Y-96495112D01*
X214095112Y-96585649D01*
X214023978Y-96692110D01*
X213998958Y-96752511D01*
X213162721Y-95916275D01*
X213162720Y-95916275D01*
X213100150Y-95997818D01*
X213100144Y-95997828D01*
X212982165Y-96202171D01*
X212982160Y-96202180D01*
X212891870Y-96420162D01*
X212830799Y-96648085D01*
X212800000Y-96882014D01*
X209700500Y-96882014D01*
X209700500Y-95589060D01*
X209700501Y-95589047D01*
X209700501Y-95420944D01*
X209699369Y-95416718D01*
X209659577Y-95268216D01*
X209638424Y-95231578D01*
X209580524Y-95131290D01*
X209580518Y-95131282D01*
X208587590Y-94138355D01*
X208587588Y-94138352D01*
X208468717Y-94019481D01*
X208468716Y-94019480D01*
X208381904Y-93969360D01*
X208381904Y-93969359D01*
X208381900Y-93969358D01*
X208331785Y-93940423D01*
X208179057Y-93899499D01*
X208020943Y-93899499D01*
X208013347Y-93899499D01*
X208013331Y-93899500D01*
X204179057Y-93899500D01*
X204020943Y-93899500D01*
X203868215Y-93940423D01*
X203868214Y-93940423D01*
X203868212Y-93940424D01*
X203868209Y-93940425D01*
X203818096Y-93969359D01*
X203818095Y-93969360D01*
X203774689Y-93994420D01*
X203731285Y-94019479D01*
X203731282Y-94019481D01*
X203319481Y-94431282D01*
X203319479Y-94431285D01*
X203269361Y-94518094D01*
X203269359Y-94518096D01*
X203240425Y-94568209D01*
X203240424Y-94568210D01*
X203240423Y-94568215D01*
X203199499Y-94720943D01*
X203199499Y-94720945D01*
X203199499Y-94770398D01*
X203179814Y-94837437D01*
X203131796Y-94880882D01*
X203118386Y-94887714D01*
X202952786Y-95008028D01*
X202808028Y-95152786D01*
X202687713Y-95318388D01*
X202645431Y-95401371D01*
X202597457Y-95452166D01*
X202545245Y-95468647D01*
X202000202Y-95514067D01*
X201931759Y-95500017D01*
X201889586Y-95463381D01*
X201801966Y-95342781D01*
X201657219Y-95198034D01*
X201657213Y-95198028D01*
X201491613Y-95077715D01*
X201491612Y-95077714D01*
X201491610Y-95077713D01*
X201432675Y-95047684D01*
X201309223Y-94984781D01*
X201114534Y-94921522D01*
X200939995Y-94893878D01*
X200912352Y-94889500D01*
X199907648Y-94889500D01*
X199883329Y-94893351D01*
X199705465Y-94921522D01*
X199510776Y-94984781D01*
X199328386Y-95077715D01*
X199162786Y-95198028D01*
X199018028Y-95342786D01*
X198897715Y-95508386D01*
X198804781Y-95690776D01*
X198741522Y-95885465D01*
X198709500Y-96087648D01*
X198709500Y-96292352D01*
X198713878Y-96319995D01*
X198741522Y-96494534D01*
X198804781Y-96689223D01*
X198860971Y-96799500D01*
X198881822Y-96840423D01*
X198897715Y-96871613D01*
X199018028Y-97037213D01*
X199047068Y-97066253D01*
X199080553Y-97127576D01*
X199075569Y-97197268D01*
X199033697Y-97253201D01*
X199025347Y-97258935D01*
X199015847Y-97264902D01*
X198998577Y-97271811D01*
X198965717Y-97296393D01*
X198961426Y-97299089D01*
X198960829Y-97299257D01*
X198957470Y-97301473D01*
X198926285Y-97319479D01*
X198907092Y-97338671D01*
X198907091Y-97338670D01*
X198900804Y-97344956D01*
X198871972Y-97366528D01*
X198845153Y-97400607D01*
X198839937Y-97405825D01*
X198152584Y-98093181D01*
X198091261Y-98126666D01*
X198064903Y-98129500D01*
X194419602Y-98129500D01*
X194352563Y-98109815D01*
X194309117Y-98061795D01*
X194302284Y-98048385D01*
X194181971Y-97882786D01*
X194037217Y-97738032D01*
X194037212Y-97738028D01*
X193943051Y-97669616D01*
X193900385Y-97614286D01*
X193894406Y-97544673D01*
X193927012Y-97482878D01*
X193976933Y-97451592D01*
X194059117Y-97424359D01*
X194059124Y-97424356D01*
X194208345Y-97332315D01*
X194332315Y-97208345D01*
X194424356Y-97059124D01*
X194424358Y-97059119D01*
X194479505Y-96892697D01*
X194479506Y-96892690D01*
X194489999Y-96789986D01*
X194490000Y-96789973D01*
X194490000Y-96440000D01*
X193105686Y-96440000D01*
X193110080Y-96435606D01*
X193162741Y-96344394D01*
X193190000Y-96242661D01*
X193190000Y-96137339D01*
X193162741Y-96035606D01*
X193110080Y-95944394D01*
X193105686Y-95940000D01*
X194489999Y-95940000D01*
X194489999Y-95590028D01*
X194489998Y-95590013D01*
X194479505Y-95487302D01*
X194424358Y-95320880D01*
X194424356Y-95320875D01*
X194332315Y-95171654D01*
X194208345Y-95047684D01*
X194059124Y-94955643D01*
X194059119Y-94955641D01*
X193892697Y-94900494D01*
X193892690Y-94900493D01*
X193789986Y-94890000D01*
X193040000Y-94890000D01*
X193040000Y-95874314D01*
X193035606Y-95869920D01*
X192944394Y-95817259D01*
X192842661Y-95790000D01*
X192737339Y-95790000D01*
X192635606Y-95817259D01*
X192544394Y-95869920D01*
X192540000Y-95874314D01*
X192540000Y-94890000D01*
X191790028Y-94890000D01*
X191790012Y-94890001D01*
X191687302Y-94900494D01*
X191520880Y-94955641D01*
X191520875Y-94955643D01*
X191371654Y-95047684D01*
X191247684Y-95171654D01*
X191155643Y-95320875D01*
X191155641Y-95320880D01*
X191100494Y-95487302D01*
X191100493Y-95487309D01*
X191090000Y-95590013D01*
X191090000Y-95940000D01*
X192474314Y-95940000D01*
X192469920Y-95944394D01*
X192417259Y-96035606D01*
X192390000Y-96137339D01*
X192390000Y-96242661D01*
X192417259Y-96344394D01*
X192469920Y-96435606D01*
X192474314Y-96440000D01*
X191090001Y-96440000D01*
X191090001Y-96789988D01*
X191094491Y-96833934D01*
X191081721Y-96902626D01*
X191033840Y-96953511D01*
X190966050Y-96970431D01*
X190902495Y-96949806D01*
X190892198Y-96942962D01*
X190868716Y-96919480D01*
X190781904Y-96869360D01*
X190731785Y-96840423D01*
X190579057Y-96799499D01*
X190420943Y-96799499D01*
X190413347Y-96799499D01*
X190413331Y-96799500D01*
X189967276Y-96799500D01*
X189900237Y-96779815D01*
X189854482Y-96727011D01*
X189846024Y-96701459D01*
X189845113Y-96697207D01*
X189843424Y-96692110D01*
X189789927Y-96530666D01*
X189697825Y-96381344D01*
X189573769Y-96257288D01*
X189424447Y-96165186D01*
X189257910Y-96110001D01*
X189257908Y-96110000D01*
X189155123Y-96099500D01*
X187955111Y-96099500D01*
X187955094Y-96099501D01*
X187852316Y-96110000D01*
X187852313Y-96110001D01*
X187685781Y-96165185D01*
X187685776Y-96165187D01*
X187536458Y-96257287D01*
X187467234Y-96326511D01*
X187405910Y-96359995D01*
X187336219Y-96355010D01*
X187306668Y-96339147D01*
X187236465Y-96288142D01*
X187054144Y-96195244D01*
X186859530Y-96132009D01*
X186657430Y-96100000D01*
X186452796Y-96100000D01*
X186250695Y-96132009D01*
X186056081Y-96195244D01*
X185873757Y-96288143D01*
X185829190Y-96320523D01*
X185829190Y-96320524D01*
X186508666Y-97000000D01*
X186502452Y-97000000D01*
X186400719Y-97027259D01*
X186309507Y-97079920D01*
X186235033Y-97154394D01*
X186182372Y-97245606D01*
X186155113Y-97347339D01*
X186155113Y-97353553D01*
X185475637Y-96674077D01*
X185475636Y-96674077D01*
X185443256Y-96718644D01*
X185350357Y-96900968D01*
X185287122Y-97095582D01*
X185255113Y-97297682D01*
X185255113Y-97502317D01*
X185287122Y-97704417D01*
X185350357Y-97899031D01*
X185443254Y-98081350D01*
X185443260Y-98081359D01*
X185475636Y-98125921D01*
X185475637Y-98125922D01*
X186155113Y-97446446D01*
X186155113Y-97452661D01*
X186182372Y-97554394D01*
X186235033Y-97645606D01*
X186309507Y-97720080D01*
X186400719Y-97772741D01*
X186502452Y-97800000D01*
X186508665Y-97800000D01*
X185829189Y-98479474D01*
X185873763Y-98511859D01*
X186056081Y-98604755D01*
X186250695Y-98667990D01*
X186452796Y-98700000D01*
X186657430Y-98700000D01*
X186859530Y-98667990D01*
X187054144Y-98604755D01*
X187236454Y-98511863D01*
X187236462Y-98511858D01*
X187306665Y-98460852D01*
X187372471Y-98437371D01*
X187440525Y-98453196D01*
X187467233Y-98473488D01*
X187536457Y-98542712D01*
X187685779Y-98634814D01*
X187852316Y-98689999D01*
X187955104Y-98700500D01*
X189155121Y-98700499D01*
X189257910Y-98689999D01*
X189424447Y-98634814D01*
X189573769Y-98542712D01*
X189697825Y-98418656D01*
X189789927Y-98269334D01*
X189845112Y-98102797D01*
X189845112Y-98102793D01*
X189846025Y-98098533D01*
X189860736Y-98071382D01*
X189873563Y-98043297D01*
X189877233Y-98040938D01*
X189879312Y-98037102D01*
X189906368Y-98022214D01*
X189932341Y-98005523D01*
X189938246Y-98004673D01*
X189940527Y-98003419D01*
X189967276Y-98000500D01*
X190199903Y-98000500D01*
X190266942Y-98020185D01*
X190287584Y-98036819D01*
X191062211Y-98811446D01*
X191095696Y-98872769D01*
X191097003Y-98879728D01*
X191121522Y-99034531D01*
X191121523Y-99034534D01*
X191184780Y-99229219D01*
X191273320Y-99402989D01*
X191277715Y-99411613D01*
X191398028Y-99577213D01*
X191542786Y-99721971D01*
X191697749Y-99834556D01*
X191708390Y-99842287D01*
X191799840Y-99888883D01*
X191801080Y-99889515D01*
X191851876Y-99937490D01*
X191868671Y-100005311D01*
X191846134Y-100071446D01*
X191801080Y-100110485D01*
X191708386Y-100157715D01*
X191542786Y-100278028D01*
X191398028Y-100422786D01*
X191277715Y-100588386D01*
X191184781Y-100770778D01*
X191121522Y-100965467D01*
X191118809Y-100982600D01*
X191088878Y-101045734D01*
X191042388Y-101078331D01*
X189861719Y-101550598D01*
X189792164Y-101557219D01*
X189742414Y-101533252D01*
X189741420Y-101534621D01*
X189559138Y-101402187D01*
X189559137Y-101402186D01*
X189559135Y-101402185D01*
X189496209Y-101370122D01*
X189362719Y-101302104D01*
X189362716Y-101302103D01*
X189153065Y-101233985D01*
X189044199Y-101216742D01*
X188935335Y-101199500D01*
X188714891Y-101199500D01*
X188642314Y-101210995D01*
X188497160Y-101233985D01*
X188287509Y-101302103D01*
X188287506Y-101302104D01*
X188091087Y-101402187D01*
X187912754Y-101531752D01*
X187912749Y-101531756D01*
X187862188Y-101582317D01*
X187800865Y-101615801D01*
X187731173Y-101610816D01*
X187675240Y-101568945D01*
X187658326Y-101537968D01*
X187628467Y-101457913D01*
X187628463Y-101457906D01*
X187542303Y-101342812D01*
X187542300Y-101342809D01*
X187427206Y-101256649D01*
X187427199Y-101256645D01*
X187292492Y-101206403D01*
X187292485Y-101206401D01*
X187232957Y-101200000D01*
X186535113Y-101200000D01*
X186535113Y-102224722D01*
X186458807Y-102180667D01*
X186344357Y-102150000D01*
X186225869Y-102150000D01*
X186111419Y-102180667D01*
X186035113Y-102224722D01*
X186035113Y-101200000D01*
X185337268Y-101200000D01*
X185277740Y-101206401D01*
X185277733Y-101206403D01*
X185143026Y-101256645D01*
X185143019Y-101256649D01*
X185027925Y-101342809D01*
X185027922Y-101342812D01*
X184941762Y-101457906D01*
X184941758Y-101457913D01*
X184891516Y-101592620D01*
X184891514Y-101592627D01*
X184885113Y-101652155D01*
X180500500Y-101652155D01*
X180500500Y-93003750D01*
X180500726Y-92996263D01*
X180518271Y-92706205D01*
X180520076Y-92691340D01*
X180557752Y-92485750D01*
X180560548Y-92470489D01*
X180591994Y-92408098D01*
X180594775Y-92405224D01*
X182405166Y-90594833D01*
X182466485Y-90561351D01*
X182470460Y-90560554D01*
X182691344Y-90520075D01*
X182706201Y-90518271D01*
X182996264Y-90500726D01*
X183003751Y-90500500D01*
X183065892Y-90500500D01*
X221934108Y-90500500D01*
X221996249Y-90500500D01*
X222003736Y-90500726D01*
G37*
%TD.AperFunction*%
%TD*%
D19*
%TO.C,R2*%
X207000000Y-103610000D03*
X207000000Y-95990000D03*
%TD*%
D20*
%TO.C,C1*%
X188555113Y-97400000D03*
D19*
X186555113Y-97400000D03*
%TD*%
%TO.C,R1*%
X203800000Y-96000000D03*
X203800000Y-103620000D03*
%TD*%
D21*
%TO.C,D1*%
X186285113Y-102600000D03*
D22*
X188825113Y-102600000D03*
%TD*%
D23*
%TO.C,J1*%
X214600000Y-102080000D03*
D24*
X214600000Y-97000000D03*
%TD*%
D25*
%TO.C,U1*%
X192790000Y-96190000D03*
D26*
X192790000Y-98730000D03*
X192790000Y-101270000D03*
X192790000Y-103810000D03*
X200410000Y-103810000D03*
X200410000Y-101270000D03*
X200410000Y-98730000D03*
X200410000Y-96190000D03*
%TD*%
D19*
%TO.C,R2*%
X207000000Y-103610000D03*
X207000000Y-95990000D03*
%TD*%
D20*
%TO.C,C1*%
X188555113Y-97400000D03*
D19*
X186555113Y-97400000D03*
%TD*%
%TO.C,R1*%
X203800000Y-96000000D03*
X203800000Y-103620000D03*
%TD*%
D21*
%TO.C,D1*%
X186285113Y-102600000D03*
D22*
X188825113Y-102600000D03*
%TD*%
D23*
%TO.C,J1*%
X214600000Y-102080000D03*
D24*
X214600000Y-97000000D03*
%TD*%
D25*
%TO.C,U1*%
X192790000Y-96190000D03*
D26*
X192790000Y-98730000D03*
X192790000Y-101270000D03*
X192790000Y-103810000D03*
X200410000Y-103810000D03*
X200410000Y-101270000D03*
X200410000Y-98730000D03*
X200410000Y-96190000D03*
%TD*%
%TO.C,R2*%
D27*
X205630000Y-96530000D02*
X205960000Y-96530000D01*
X205630000Y-103070000D02*
X205630000Y-96530000D01*
X205960000Y-103070000D02*
X205630000Y-103070000D01*
X208040000Y-103070000D02*
X208370000Y-103070000D01*
X208370000Y-96530000D02*
X208040000Y-96530000D01*
X208370000Y-103070000D02*
X208370000Y-96530000D01*
%TO.C,C1*%
X184955113Y-97683000D02*
X184955113Y-97117000D01*
X184995113Y-97917000D02*
X184995113Y-96883000D01*
X185035113Y-98077000D02*
X185035113Y-96723000D01*
X185075113Y-98205000D02*
X185075113Y-96595000D01*
X185115113Y-98314000D02*
X185115113Y-96486000D01*
X185155113Y-98411000D02*
X185155113Y-96389000D01*
X185195113Y-98498000D02*
X185195113Y-96302000D01*
X185235113Y-98577000D02*
X185235113Y-96223000D01*
X185275113Y-98651000D02*
X185275113Y-96149000D01*
X185315113Y-98719000D02*
X185315113Y-96081000D01*
X185355113Y-98783000D02*
X185355113Y-96017000D01*
X185395113Y-98843000D02*
X185395113Y-95957000D01*
X185435113Y-98899000D02*
X185435113Y-95901000D01*
X185475113Y-98953000D02*
X185475113Y-95847000D01*
X185515113Y-99004000D02*
X185515113Y-95796000D01*
X185555113Y-96360000D02*
X185555113Y-95748000D01*
X185555113Y-99052000D02*
X185555113Y-98440000D01*
X185595113Y-96360000D02*
X185595113Y-95701000D01*
X185595113Y-99099000D02*
X185595113Y-98440000D01*
X185635113Y-96360000D02*
X185635113Y-95657000D01*
X185635113Y-99143000D02*
X185635113Y-98440000D01*
X185675113Y-96360000D02*
X185675113Y-95615000D01*
X185675113Y-99185000D02*
X185675113Y-98440000D01*
X185715113Y-96360000D02*
X185715113Y-95575000D01*
X185715113Y-99225000D02*
X185715113Y-98440000D01*
X185755113Y-96360000D02*
X185755113Y-95536000D01*
X185755113Y-99264000D02*
X185755113Y-98440000D01*
X185795113Y-96360000D02*
X185795113Y-95499000D01*
X185795113Y-99301000D02*
X185795113Y-98440000D01*
X185835113Y-96360000D02*
X185835113Y-95464000D01*
X185835113Y-99336000D02*
X185835113Y-98440000D01*
X185875113Y-96360000D02*
X185875113Y-95430000D01*
X185875113Y-99370000D02*
X185875113Y-98440000D01*
X185915113Y-96360000D02*
X185915113Y-95397000D01*
X185915113Y-99403000D02*
X185915113Y-98440000D01*
X185955113Y-96360000D02*
X185955113Y-95365000D01*
X185955113Y-99435000D02*
X185955113Y-98440000D01*
X185995113Y-96360000D02*
X185995113Y-95335000D01*
X185995113Y-99465000D02*
X185995113Y-98440000D01*
X186035113Y-96360000D02*
X186035113Y-95306000D01*
X186035113Y-99494000D02*
X186035113Y-98440000D01*
X186075113Y-96360000D02*
X186075113Y-95278000D01*
X186075113Y-99522000D02*
X186075113Y-98440000D01*
X186115113Y-96360000D02*
X186115113Y-95251000D01*
X186115113Y-99549000D02*
X186115113Y-98440000D01*
X186155113Y-96360000D02*
X186155113Y-95225000D01*
X186155113Y-99575000D02*
X186155113Y-98440000D01*
X186195113Y-96360000D02*
X186195113Y-95201000D01*
X186195113Y-99599000D02*
X186195113Y-98440000D01*
X186235113Y-96360000D02*
X186235113Y-95177000D01*
X186235113Y-99623000D02*
X186235113Y-98440000D01*
X186275113Y-96360000D02*
X186275113Y-95154000D01*
X186275113Y-99646000D02*
X186275113Y-98440000D01*
X186315113Y-96360000D02*
X186315113Y-95132000D01*
X186315113Y-99668000D02*
X186315113Y-98440000D01*
X186355113Y-96360000D02*
X186355113Y-95111000D01*
X186355113Y-99689000D02*
X186355113Y-98440000D01*
X186395113Y-96360000D02*
X186395113Y-95091000D01*
X186395113Y-99709000D02*
X186395113Y-98440000D01*
X186435113Y-96360000D02*
X186435113Y-95071000D01*
X186435113Y-99729000D02*
X186435113Y-98440000D01*
X186475113Y-96360000D02*
X186475113Y-95053000D01*
X186475113Y-99747000D02*
X186475113Y-98440000D01*
X186515113Y-96360000D02*
X186515113Y-95035000D01*
X186515113Y-99765000D02*
X186515113Y-98440000D01*
X186555113Y-96360000D02*
X186555113Y-95018000D01*
X186555113Y-99782000D02*
X186555113Y-98440000D01*
X186595113Y-96360000D02*
X186595113Y-95002000D01*
X186595113Y-99798000D02*
X186595113Y-98440000D01*
X186635113Y-96360000D02*
X186635113Y-94987000D01*
X186635113Y-99813000D02*
X186635113Y-98440000D01*
X186675113Y-96360000D02*
X186675113Y-94972000D01*
X186675113Y-99828000D02*
X186675113Y-98440000D01*
X186715113Y-96360000D02*
X186715113Y-94958000D01*
X186715113Y-99842000D02*
X186715113Y-98440000D01*
X186755113Y-96360000D02*
X186755113Y-94945000D01*
X186755113Y-99855000D02*
X186755113Y-98440000D01*
X186795113Y-96360000D02*
X186795113Y-94933000D01*
X186795113Y-99867000D02*
X186795113Y-98440000D01*
X186835113Y-96360000D02*
X186835113Y-94921000D01*
X186835113Y-99879000D02*
X186835113Y-98440000D01*
X186875113Y-96360000D02*
X186875113Y-94910000D01*
X186875113Y-99890000D02*
X186875113Y-98440000D01*
X186915113Y-96360000D02*
X186915113Y-94899000D01*
X186915113Y-99901000D02*
X186915113Y-98440000D01*
X186955113Y-96360000D02*
X186955113Y-94890000D01*
X186955113Y-99910000D02*
X186955113Y-98440000D01*
X186995113Y-96360000D02*
X186995113Y-94881000D01*
X186995113Y-99919000D02*
X186995113Y-98440000D01*
X187035113Y-96360000D02*
X187035113Y-94872000D01*
X187035113Y-99928000D02*
X187035113Y-98440000D01*
X187075113Y-96360000D02*
X187075113Y-94864000D01*
X187075113Y-99936000D02*
X187075113Y-98440000D01*
X187115113Y-96360000D02*
X187115113Y-94857000D01*
X187115113Y-99943000D02*
X187115113Y-98440000D01*
X187155113Y-96360000D02*
X187155113Y-94851000D01*
X187155113Y-99949000D02*
X187155113Y-98440000D01*
X187195113Y-96360000D02*
X187195113Y-94845000D01*
X187195113Y-99955000D02*
X187195113Y-98440000D01*
X187235113Y-96360000D02*
X187235113Y-94840000D01*
X187235113Y-99960000D02*
X187235113Y-98440000D01*
X187275113Y-96360000D02*
X187275113Y-94835000D01*
X187275113Y-99965000D02*
X187275113Y-98440000D01*
X187315113Y-96360000D02*
X187315113Y-94831000D01*
X187315113Y-99969000D02*
X187315113Y-98440000D01*
X187355113Y-96360000D02*
X187355113Y-94828000D01*
X187355113Y-99972000D02*
X187355113Y-98440000D01*
X187395113Y-96360000D02*
X187395113Y-94825000D01*
X187395113Y-99975000D02*
X187395113Y-98440000D01*
X187435113Y-96360000D02*
X187435113Y-94823000D01*
X187435113Y-99977000D02*
X187435113Y-98440000D01*
X187475113Y-96360000D02*
X187475113Y-94821000D01*
X187475113Y-99979000D02*
X187475113Y-98440000D01*
X187515113Y-96360000D02*
X187515113Y-94820000D01*
X187515113Y-99980000D02*
X187515113Y-98440000D01*
X187555113Y-96360000D02*
X187555113Y-94820000D01*
X187555113Y-99980000D02*
X187555113Y-98440000D01*
X190109888Y-99125000D02*
X190109888Y-98625000D01*
X190359888Y-98875000D02*
X189859888Y-98875000D01*
X190175113Y-97400000D02*
G75*
G02*
X184935113Y-97400000I-2620000J0D01*
G01*
X184935113Y-97400000D02*
G75*
G02*
X190175113Y-97400000I2620000J0D01*
G01*
%TO.C,R1*%
X202430000Y-96540000D02*
X202430000Y-103080000D01*
X202430000Y-103080000D02*
X202760000Y-103080000D01*
X202760000Y-96540000D02*
X202430000Y-96540000D01*
X204840000Y-96540000D02*
X205170000Y-96540000D01*
X205170000Y-96540000D02*
X205170000Y-103080000D01*
X205170000Y-103080000D02*
X204840000Y-103080000D01*
%TO.C,D1*%
X185995113Y-101364000D02*
X185995113Y-101520000D01*
X185995113Y-103680000D02*
X185995113Y-103836000D01*
X185995113Y-101364484D02*
G75*
G02*
X189226550Y-101520000I1560000J-1235516D01*
G01*
X186514152Y-101520000D02*
G75*
G02*
X188596074Y-101520000I1040961J-1080000D01*
G01*
X188596074Y-103680000D02*
G75*
G02*
X186514152Y-103680000I-1040961J1080000D01*
G01*
X189226550Y-103680000D02*
G75*
G02*
X185995113Y-103835516I-1671437J1080000D01*
G01*
%TO.C,J1*%
X209280000Y-94340000D02*
X219320000Y-94340000D01*
X209280000Y-104740000D02*
X209280000Y-94340000D01*
X209280000Y-104740000D02*
X219320000Y-104740000D01*
X212300000Y-104740000D02*
X212300000Y-94340000D01*
X217200000Y-104740000D02*
X217200000Y-94340000D01*
X218700000Y-104740000D02*
X218700000Y-94340000D01*
X219320000Y-101780000D02*
X219320000Y-94340000D01*
X219320000Y-104740000D02*
X219320000Y-102380000D01*
X219320000Y-102080000D02*
X219930000Y-101640000D01*
X219930000Y-102520000D01*
X219320000Y-102080000D01*
G36*
X219930000Y-102520000D02*
G01*
X219320000Y-102080000D01*
X219930000Y-101640000D01*
X219930000Y-102520000D01*
G37*
%TO.C,U1*%
X194350000Y-94860000D02*
X194350000Y-105140000D01*
X194350000Y-105140000D02*
X198850000Y-105140000D01*
X195600000Y-94860000D02*
X194350000Y-94860000D01*
X198850000Y-94860000D02*
X197600000Y-94860000D01*
X198850000Y-105140000D02*
X198850000Y-94860000D01*
X191350000Y-94800000D02*
X201850000Y-94800000D01*
X201850000Y-105200000D01*
X191350000Y-105200000D01*
X191350000Y-94800000D01*
X197600000Y-94860000D02*
G75*
G02*
X195600000Y-94860000I-1000000J0D01*
G01*
%TD*%
%TO.C,R2*%
D28*
X205500000Y-94940000D02*
X208500000Y-94940000D01*
X208500000Y-104660000D01*
X205500000Y-104660000D01*
X205500000Y-94940000D01*
%TO.C,C1*%
X190305113Y-97400000D02*
G75*
G02*
X184805113Y-97400000I-2750000J0D01*
G01*
X184805113Y-97400000D02*
G75*
G02*
X190305113Y-97400000I2750000J0D01*
G01*
%TO.C,R1*%
X202300000Y-94950000D02*
X205300000Y-94950000D01*
X205300000Y-104670000D01*
X202300000Y-104670000D01*
X202300000Y-94950000D01*
%TO.C,D1*%
X185135113Y-100390000D02*
X185135113Y-104810000D01*
X185135113Y-104810000D02*
X189975113Y-104810000D01*
X189975113Y-100390000D02*
X185135113Y-100390000D01*
X189975113Y-104810000D02*
X189975113Y-100390000D01*
%TO.C,J1*%
X208890000Y-93950000D02*
X208890000Y-105120000D01*
X208890000Y-105120000D02*
X219700000Y-105120000D01*
X219700000Y-93950000D02*
X208890000Y-93950000D01*
X219700000Y-105120000D02*
X219700000Y-93950000D01*
%TO.C,U1*%
X191270000Y-94610000D02*
X201930000Y-94610000D01*
X201930000Y-105390000D01*
X191270000Y-105390000D01*
X191270000Y-94610000D01*
%TD*%
D29*
X207454819Y-99966666D02*
X206978628Y-100299999D01*
X207454819Y-100538094D02*
X206454819Y-100538094D01*
X206454819Y-100538094D02*
X206454819Y-100157142D01*
X206454819Y-100157142D02*
X206502438Y-100061904D01*
X206502438Y-100061904D02*
X206550057Y-100014285D01*
X206550057Y-100014285D02*
X206645295Y-99966666D01*
X206645295Y-99966666D02*
X206788152Y-99966666D01*
X206788152Y-99966666D02*
X206883390Y-100014285D01*
X206883390Y-100014285D02*
X206931009Y-100061904D01*
X206931009Y-100061904D02*
X206978628Y-100157142D01*
X206978628Y-100157142D02*
X206978628Y-100538094D01*
X206550057Y-99585713D02*
X206502438Y-99538094D01*
X206502438Y-99538094D02*
X206454819Y-99442856D01*
X206454819Y-99442856D02*
X206454819Y-99204761D01*
X206454819Y-99204761D02*
X206502438Y-99109523D01*
X206502438Y-99109523D02*
X206550057Y-99061904D01*
X206550057Y-99061904D02*
X206645295Y-99014285D01*
X206645295Y-99014285D02*
X206740533Y-99014285D01*
X206740533Y-99014285D02*
X206883390Y-99061904D01*
X206883390Y-99061904D02*
X207454819Y-99633332D01*
X207454819Y-99633332D02*
X207454819Y-99014285D01*
X186788446Y-97759580D02*
X186740827Y-97807200D01*
X186740827Y-97807200D02*
X186597970Y-97854819D01*
X186597970Y-97854819D02*
X186502732Y-97854819D01*
X186502732Y-97854819D02*
X186359875Y-97807200D01*
X186359875Y-97807200D02*
X186264637Y-97711961D01*
X186264637Y-97711961D02*
X186217018Y-97616723D01*
X186217018Y-97616723D02*
X186169399Y-97426247D01*
X186169399Y-97426247D02*
X186169399Y-97283390D01*
X186169399Y-97283390D02*
X186217018Y-97092914D01*
X186217018Y-97092914D02*
X186264637Y-96997676D01*
X186264637Y-96997676D02*
X186359875Y-96902438D01*
X186359875Y-96902438D02*
X186502732Y-96854819D01*
X186502732Y-96854819D02*
X186597970Y-96854819D01*
X186597970Y-96854819D02*
X186740827Y-96902438D01*
X186740827Y-96902438D02*
X186788446Y-96950057D01*
X187740827Y-97854819D02*
X187169399Y-97854819D01*
X187455113Y-97854819D02*
X187455113Y-96854819D01*
X187455113Y-96854819D02*
X187359875Y-96997676D01*
X187359875Y-96997676D02*
X187264637Y-97092914D01*
X187264637Y-97092914D02*
X187169399Y-97140533D01*
X204254819Y-99976666D02*
X203778628Y-100309999D01*
X204254819Y-100548094D02*
X203254819Y-100548094D01*
X203254819Y-100548094D02*
X203254819Y-100167142D01*
X203254819Y-100167142D02*
X203302438Y-100071904D01*
X203302438Y-100071904D02*
X203350057Y-100024285D01*
X203350057Y-100024285D02*
X203445295Y-99976666D01*
X203445295Y-99976666D02*
X203588152Y-99976666D01*
X203588152Y-99976666D02*
X203683390Y-100024285D01*
X203683390Y-100024285D02*
X203731009Y-100071904D01*
X203731009Y-100071904D02*
X203778628Y-100167142D01*
X203778628Y-100167142D02*
X203778628Y-100548094D01*
X204254819Y-99024285D02*
X204254819Y-99595713D01*
X204254819Y-99309999D02*
X203254819Y-99309999D01*
X203254819Y-99309999D02*
X203397676Y-99405237D01*
X203397676Y-99405237D02*
X203492914Y-99500475D01*
X203492914Y-99500475D02*
X203540533Y-99595713D01*
D27*
X186964637Y-102963855D02*
X186964637Y-102163855D01*
X186964637Y-102163855D02*
X187155113Y-102163855D01*
X187155113Y-102163855D02*
X187269399Y-102201950D01*
X187269399Y-102201950D02*
X187345589Y-102278140D01*
X187345589Y-102278140D02*
X187383684Y-102354331D01*
X187383684Y-102354331D02*
X187421780Y-102506712D01*
X187421780Y-102506712D02*
X187421780Y-102620998D01*
X187421780Y-102620998D02*
X187383684Y-102773379D01*
X187383684Y-102773379D02*
X187345589Y-102849569D01*
X187345589Y-102849569D02*
X187269399Y-102925760D01*
X187269399Y-102925760D02*
X187155113Y-102963855D01*
X187155113Y-102963855D02*
X186964637Y-102963855D01*
X188183684Y-102963855D02*
X187726541Y-102963855D01*
X187955113Y-102963855D02*
X187955113Y-102163855D01*
X187955113Y-102163855D02*
X187878922Y-102278140D01*
X187878922Y-102278140D02*
X187802732Y-102354331D01*
X187802732Y-102354331D02*
X187726541Y-102392426D01*
D29*
X217254819Y-99873333D02*
X217969104Y-99873333D01*
X217969104Y-99873333D02*
X218111961Y-99920952D01*
X218111961Y-99920952D02*
X218207200Y-100016190D01*
X218207200Y-100016190D02*
X218254819Y-100159047D01*
X218254819Y-100159047D02*
X218254819Y-100254285D01*
X218254819Y-98873333D02*
X218254819Y-99444761D01*
X218254819Y-99159047D02*
X217254819Y-99159047D01*
X217254819Y-99159047D02*
X217397676Y-99254285D01*
X217397676Y-99254285D02*
X217492914Y-99349523D01*
X217492914Y-99349523D02*
X217540533Y-99444761D01*
X196054819Y-100761904D02*
X196864342Y-100761904D01*
X196864342Y-100761904D02*
X196959580Y-100714285D01*
X196959580Y-100714285D02*
X197007200Y-100666666D01*
X197007200Y-100666666D02*
X197054819Y-100571428D01*
X197054819Y-100571428D02*
X197054819Y-100380952D01*
X197054819Y-100380952D02*
X197007200Y-100285714D01*
X197007200Y-100285714D02*
X196959580Y-100238095D01*
X196959580Y-100238095D02*
X196864342Y-100190476D01*
X196864342Y-100190476D02*
X196054819Y-100190476D01*
X197054819Y-99190476D02*
X197054819Y-99761904D01*
X197054819Y-99476190D02*
X196054819Y-99476190D01*
X196054819Y-99476190D02*
X196197676Y-99571428D01*
X196197676Y-99571428D02*
X196292914Y-99666666D01*
X196292914Y-99666666D02*
X196340533Y-99761904D01*
%TO.C,R2*%
D30*
X207000000Y-95990000D02*
X207000000Y-96650000D01*
X207000000Y-103610000D02*
X207000000Y-102950000D01*
X205750000Y-96650000D02*
X208250000Y-96650000D01*
X208250000Y-102950000D01*
X205750000Y-102950000D01*
X205750000Y-96650000D01*
%TO.C,C1*%
X189438718Y-98737500D02*
X189438718Y-98237500D01*
X189688718Y-98487500D02*
X189188718Y-98487500D01*
X190055113Y-97400000D02*
G75*
G02*
X185055113Y-97400000I-2500000J0D01*
G01*
X185055113Y-97400000D02*
G75*
G02*
X190055113Y-97400000I2500000J0D01*
G01*
%TO.C,R1*%
X203800000Y-96000000D02*
X203800000Y-96660000D01*
X203800000Y-103620000D02*
X203800000Y-102960000D01*
X202550000Y-96660000D02*
X205050000Y-96660000D01*
X205050000Y-102960000D01*
X202550000Y-102960000D01*
X202550000Y-96660000D01*
%TO.C,D1*%
X186055113Y-101433810D02*
X186055113Y-103766190D01*
X186055113Y-101433810D02*
G75*
G02*
X186055113Y-103766190I1500000J-1166190D01*
G01*
X189055113Y-102600000D02*
G75*
G02*
X186055113Y-102600000I-1500000J0D01*
G01*
X186055113Y-102600000D02*
G75*
G02*
X189055113Y-102600000I1500000J0D01*
G01*
%TO.C,J1*%
X209400000Y-94460000D02*
X219200000Y-94460000D01*
X209400000Y-104620000D02*
X209400000Y-94460000D01*
X212300000Y-104620000D02*
X212300000Y-94460000D01*
X213462000Y-96045000D02*
X215555000Y-98138000D01*
X213462000Y-101125000D02*
X215555000Y-103218000D01*
X213645000Y-95862000D02*
X215738000Y-97955000D01*
X213645000Y-100942000D02*
X215738000Y-103035000D01*
X217200000Y-104620000D02*
X217200000Y-94460000D01*
X218700000Y-104620000D02*
X209400000Y-104620000D01*
X218700000Y-104620000D02*
X218700000Y-94460000D01*
X219200000Y-94460000D02*
X219200000Y-104120000D01*
X219200000Y-104120000D02*
X218700000Y-104620000D01*
X216100000Y-97000000D02*
G75*
G02*
X213100000Y-97000000I-1500000J0D01*
G01*
X213100000Y-97000000D02*
G75*
G02*
X216100000Y-97000000I1500000J0D01*
G01*
X216100000Y-102080000D02*
G75*
G02*
X213100000Y-102080000I-1500000J0D01*
G01*
X213100000Y-102080000D02*
G75*
G02*
X216100000Y-102080000I1500000J0D01*
G01*
%TO.C,U1*%
X193425000Y-95920000D02*
X194425000Y-94920000D01*
X193425000Y-105080000D02*
X193425000Y-95920000D01*
X194425000Y-94920000D02*
X199775000Y-94920000D01*
X199775000Y-94920000D02*
X199775000Y-105080000D01*
X199775000Y-105080000D02*
X193425000Y-105080000D01*
X191520000Y-94860000D02*
X201680000Y-94860000D01*
X201680000Y-105140000D01*
X191520000Y-105140000D01*
X191520000Y-94860000D01*
%TD*%
D31*
X225000000Y-93000000D02*
X225000000Y-107000000D01*
X180000000Y-93000000D02*
G75*
G02*
X183000000Y-90000000I3000000J0D01*
G01*
X180000000Y-107000000D02*
X180000000Y-93000000D01*
X225000000Y-107000000D02*
G75*
G02*
X222000000Y-110000000I-3000000J0D01*
G01*
X183000000Y-110000000D02*
G75*
G02*
X180000000Y-107000000I0J3000000D01*
G01*
X183000000Y-110000000D02*
X222000000Y-110000000D01*
X222000000Y-90000000D02*
G75*
G02*
X225000000Y-93000000I0J-3000000D01*
G01*
X183000000Y-90000000D02*
X222000000Y-90000000D01*
M02*
